<svg width="443" height="149" viewBox="0 0 443 149" fill="none" xmlns="http://www.w3.org/2000/svg">
<path fill-rule="evenodd" clip-rule="evenodd" d="M0 148H258V147.941L266.312 148.062C271.021 148.062 277 147 282 144C287 141 289 139.5 292.5 135C296 130.5 298 126.5 299 122.312C300.375 118.125 300.375 113.771 300.375 109.062V99.7384C300.136 99.2302 299.907 98.7132 299.688 98.1875C297.896 93.8542 297 89.1042 297 83.9375C297 78.6458 297.896 73.8125 299.688 69.4375C299.907 68.9016 300.136 68.3753 300.375 67.8588V50.7044L300.38 50.7L300.375 50.6921V50.6875H300.372L289.489 33.5951C288.254 31.6555 285.386 31.7692 284.308 33.8003L275.819 49.8009C274.771 49.4175 273.706 49.088 272.625 48.8125C270.5 48.2708 268.354 48 266.188 48C261.479 48 257.042 48.8958 252.875 50.6875C248.75 52.4792 245.125 54.9583 242 58.125C238.917 61.2917 236.479 65.0417 234.688 69.375C232.896 73.7083 232 78.3958 232 83.4375C232 88.9375 232.896 93.875 234.688 98.25C236.479 102.625 238.917 106.333 242 109.375C245.125 112.375 248.75 114.688 252.875 116.312C257.042 117.938 261.479 118.75 266.188 118.75C267.604 118.75 269.125 118.667 270.75 118.5C272.417 118.333 274 118.021 275.5 117.562C277.042 117.146 278.438 116.604 279.688 115.938C280.938 115.229 281.896 114.333 282.562 113.25C282.104 114.958 281.479 116.583 280.688 118.125L280.6 118.305C279.901 119.744 279.441 120.692 278 122.312C276.5 124 274.636 125.742 273.5 126.5C272.364 127.258 270.75 128 266.188 128.125L258 128.004V128H20V20H422V128H300.5C300.5 128 298 133.5 294.5 138.5C291 143.5 283.74 148 283.74 148H442.26V128H442V0H0V148ZM281.812 76.6875C282.729 78.8542 283.188 81.1042 283.188 83.4375C283.188 85.7708 282.729 88.0417 281.812 90.25C280.938 92.4167 279.729 94.3542 278.188 96.0625C276.646 97.7292 274.833 99.0833 272.75 100.125C270.708 101.125 268.521 101.625 266.188 101.625C263.854 101.625 261.646 101.208 259.562 100.375C257.521 99.5 255.729 98.2708 254.188 96.6875C252.688 95.1042 251.5 93.2083 250.625 91C249.75 88.75 249.312 86.2292 249.312 83.4375C249.312 80.5208 249.75 77.9375 250.625 75.6875C251.5 73.3958 252.688 71.4792 254.188 69.9375C255.729 68.3958 257.521 67.2292 259.562 66.4375C261.646 65.6458 263.854 65.25 266.188 65.25C268.521 65.25 270.708 65.7708 272.75 66.8125C274.833 67.8125 276.646 69.1667 278.188 70.875C279.729 72.5417 280.938 74.4792 281.812 76.6875Z" fill="white"/>
<path fill-rule="evenodd" clip-rule="evenodd" d="M0 148H258V147.941L266.312 148.062C271.021 148.062 277 147 282 144C287 141 289 139.5 292.5 135C296 130.5 298 126.5 299 122.312C300.375 118.125 300.375 113.771 300.375 109.062V99.7384C300.136 99.2302 299.907 98.7132 299.688 98.1875C297.896 93.8542 297 89.1042 297 83.9375C297 78.6458 297.896 73.8125 299.688 69.4375C299.907 68.9016 300.136 68.3753 300.375 67.8588V50.7044L300.38 50.7L300.375 50.6921V50.6875H300.372L289.489 33.5951C288.254 31.6555 285.386 31.7692 284.308 33.8003L275.819 49.8009C274.771 49.4175 273.706 49.088 272.625 48.8125C270.5 48.2708 268.354 48 266.188 48C261.479 48 257.042 48.8958 252.875 50.6875C248.75 52.4792 245.125 54.9583 242 58.125C238.917 61.2917 236.479 65.0417 234.688 69.375C232.896 73.7083 232 78.3958 232 83.4375C232 88.9375 232.896 93.875 234.688 98.25C236.479 102.625 238.917 106.333 242 109.375C245.125 112.375 248.75 114.688 252.875 116.312C257.042 117.938 261.479 118.75 266.188 118.75C267.604 118.75 269.125 118.667 270.75 118.5C272.417 118.333 274 118.021 275.5 117.562C277.042 117.146 278.438 116.604 279.688 115.938C280.938 115.229 281.896 114.333 282.562 113.25C282.104 114.958 281.479 116.583 280.688 118.125L280.6 118.305C279.901 119.744 279.441 120.692 278 122.312C276.5 124 274.636 125.742 273.5 126.5C272.364 127.258 270.75 128 266.188 128.125L258 128.004V128H20V20H422V128H300.5C300.5 128 298 133.5 294.5 138.5C291 143.5 283.74 148 283.74 148H442.26V128H442V0H0V148ZM281.812 76.6875C282.729 78.8542 283.188 81.1042 283.188 83.4375C283.188 85.7708 282.729 88.0417 281.812 90.25C280.938 92.4167 279.729 94.3542 278.188 96.0625C276.646 97.7292 274.833 99.0833 272.75 100.125C270.708 101.125 268.521 101.625 266.188 101.625C263.854 101.625 261.646 101.208 259.562 100.375C257.521 99.5 255.729 98.2708 254.188 96.6875C252.688 95.1042 251.5 93.2083 250.625 91C249.75 88.75 249.312 86.2292 249.312 83.4375C249.312 80.5208 249.75 77.9375 250.625 75.6875C251.5 73.3958 252.688 71.4792 254.188 69.9375C255.729 68.3958 257.521 67.2292 259.562 66.4375C261.646 65.6458 263.854 65.25 266.188 65.25C268.521 65.25 270.708 65.7708 272.75 66.8125C274.833 67.8125 276.646 69.1667 278.188 70.875C279.729 72.5417 280.938 74.4792 281.812 76.6875Z" fill="white"/>
<path fill-rule="evenodd" clip-rule="evenodd" d="M164.5 50.7V69.875C162.708 74.2083 161.812 78.8958 161.812 83.9375C161.812 89.0208 162.708 93.7292 164.5 98.0625V116.59H160.375L153.75 107.402C152.125 108.861 150.396 110.236 148.562 111.527C146.771 112.777 144.875 113.882 142.875 114.84C140.875 115.757 138.812 116.486 136.688 117.027C134.604 117.569 132.479 117.84 130.312 117.84C125.604 117.84 121.167 117.048 117 115.465C112.875 113.882 109.25 111.59 106.125 108.59C103.042 105.548 100.604 101.84 98.8125 97.4648C97.0208 93.0898 96.125 88.1107 96.125 82.5273C96.125 77.319 97.0208 72.5482 98.8125 68.2148C100.604 63.8398 103.042 60.0898 106.125 56.9648C109.25 53.8398 112.875 51.4232 117 49.7148C121.167 47.9648 125.604 47.0898 130.312 47.0898C132.479 47.0898 134.625 47.3607 136.75 47.9023C137.968 48.2129 139.166 48.5919 140.343 49.0395L148.428 33.8003C149.506 31.7692 152.374 31.6555 153.609 33.5951L164.5 50.7ZM147.312 82.5273C147.312 80.194 146.854 77.944 145.938 75.7773C145.062 73.569 143.854 71.6315 142.312 69.9648C140.771 68.2565 138.958 66.9023 136.875 65.9023C134.833 64.8607 132.646 64.3398 130.312 64.3398C127.979 64.3398 125.771 64.7357 123.688 65.5273C121.646 66.319 119.854 67.4857 118.312 69.0273C116.812 70.569 115.625 72.4857 114.75 74.7773C113.875 77.0273 113.438 79.6107 113.438 82.5273C113.438 85.444 113.875 88.0482 114.75 90.3398C115.625 92.5898 116.812 94.4857 118.312 96.0273C119.854 97.569 121.646 98.7357 123.688 99.5273C125.771 100.319 127.979 100.715 130.312 100.715C132.646 100.715 134.833 100.215 136.875 99.2148C138.958 98.1732 140.771 96.819 142.312 95.1523C143.854 93.444 145.062 91.5065 145.938 89.3398C146.854 87.1315 147.312 84.8607 147.312 82.5273Z" fill="white"/>
<path fill-rule="evenodd" clip-rule="evenodd" d="M164.5 50.7V69.875C162.708 74.2083 161.812 78.8958 161.812 83.9375C161.812 89.0208 162.708 93.7292 164.5 98.0625V116.59H160.375L153.75 107.402C152.125 108.861 150.396 110.236 148.562 111.527C146.771 112.777 144.875 113.882 142.875 114.84C140.875 115.757 138.812 116.486 136.688 117.027C134.604 117.569 132.479 117.84 130.312 117.84C125.604 117.84 121.167 117.048 117 115.465C112.875 113.882 109.25 111.59 106.125 108.59C103.042 105.548 100.604 101.84 98.8125 97.4648C97.0208 93.0898 96.125 88.1107 96.125 82.5273C96.125 77.319 97.0208 72.5482 98.8125 68.2148C100.604 63.8398 103.042 60.0898 106.125 56.9648C109.25 53.8398 112.875 51.4232 117 49.7148C121.167 47.9648 125.604 47.0898 130.312 47.0898C132.479 47.0898 134.625 47.3607 136.75 47.9023C137.968 48.2129 139.166 48.5919 140.343 49.0395L148.428 33.8003C149.506 31.7692 152.374 31.6555 153.609 33.5951L164.5 50.7ZM147.312 82.5273C147.312 80.194 146.854 77.944 145.938 75.7773C145.062 73.569 143.854 71.6315 142.312 69.9648C140.771 68.2565 138.958 66.9023 136.875 65.9023C134.833 64.8607 132.646 64.3398 130.312 64.3398C127.979 64.3398 125.771 64.7357 123.688 65.5273C121.646 66.319 119.854 67.4857 118.312 69.0273C116.812 70.569 115.625 72.4857 114.75 74.7773C113.875 77.0273 113.438 79.6107 113.438 82.5273C113.438 85.444 113.875 88.0482 114.75 90.3398C115.625 92.5898 116.812 94.4857 118.312 96.0273C119.854 97.569 121.646 98.7357 123.688 99.5273C125.771 100.319 127.979 100.715 130.312 100.715C132.646 100.715 134.833 100.215 136.875 99.2148C138.958 98.1732 140.771 96.819 142.312 95.1523C143.854 93.444 145.062 91.5065 145.938 89.3398C146.854 87.1315 147.312 84.8607 147.312 82.5273Z" fill="white"/>
<path fill-rule="evenodd" clip-rule="evenodd" d="M94.6667 71.0365C93.5556 74.5955 93 78.4257 93 82.5273C93 86.8394 93.5343 90.7911 94.603 94.3824C94.3295 95.2295 94.0243 96.0603 93.6875 96.875C91.8958 101.208 89.4583 104.938 86.375 108.062C83.2917 111.146 79.6667 113.542 75.5 115.25C71.375 116.958 66.9375 117.812 62.1875 117.812C57.4792 117.812 53.0417 116.938 48.875 115.188C44.75 113.438 41.125 111 38 107.875C34.9167 104.75 32.4792 101.042 30.6875 96.75C28.8958 92.4167 28 87.6667 28 82.5V23H45.125V54.25C46.0417 53.0833 47.1458 52.0417 48.4375 51.125C49.7708 50.2083 51.1875 49.4583 52.6875 48.875C54.2292 48.2917 55.8125 47.8542 57.4375 47.5625C59.0625 47.2292 60.6458 47.0625 62.1875 47.0625C66.9375 47.0625 71.375 47.9583 75.5 49.75C79.6667 51.5 83.2917 53.9583 86.375 57.125C89.4583 60.2917 91.8958 64.0417 93.6875 68.375C94.0507 69.245 94.3771 70.1322 94.6667 71.0365ZM77.8125 75.3125C78.7292 77.5208 79.1875 79.9167 79.1875 82.5C79.1875 85.0833 78.7292 87.4792 77.8125 89.6875C76.9375 91.8958 75.7292 93.8125 74.1875 95.4375C72.6458 97.0625 70.8333 98.3542 68.75 99.3125C66.7083 100.229 64.5208 100.688 62.1875 100.688C59.8542 100.688 57.6458 100.229 55.5625 99.3125C53.5208 98.3542 51.7292 97.0625 50.1875 95.4375C48.6458 93.8125 47.4375 91.8958 46.5625 89.6875C45.6875 87.4792 45.25 85.0833 45.25 82.5C45.25 80.1667 45.6875 77.9167 46.5625 75.75C47.4375 73.5417 48.6458 71.6042 50.1875 69.9375C51.7292 68.2292 53.5208 66.875 55.5625 65.875C57.6458 64.8333 59.8542 64.3125 62.1875 64.3125C64.5208 64.3125 66.7083 64.7708 68.75 65.6875C70.8333 66.6042 72.6458 67.875 74.1875 69.5C75.7292 71.125 76.9375 73.0625 77.8125 75.3125Z" fill="white"/>
<path fill-rule="evenodd" clip-rule="evenodd" d="M94.6667 71.0365C93.5556 74.5955 93 78.4257 93 82.5273C93 86.8394 93.5343 90.7911 94.603 94.3824C94.3295 95.2295 94.0243 96.0603 93.6875 96.875C91.8958 101.208 89.4583 104.938 86.375 108.062C83.2917 111.146 79.6667 113.542 75.5 115.25C71.375 116.958 66.9375 117.812 62.1875 117.812C57.4792 117.812 53.0417 116.938 48.875 115.188C44.75 113.438 41.125 111 38 107.875C34.9167 104.75 32.4792 101.042 30.6875 96.75C28.8958 92.4167 28 87.6667 28 82.5V23H45.125V54.25C46.0417 53.0833 47.1458 52.0417 48.4375 51.125C49.7708 50.2083 51.1875 49.4583 52.6875 48.875C54.2292 48.2917 55.8125 47.8542 57.4375 47.5625C59.0625 47.2292 60.6458 47.0625 62.1875 47.0625C66.9375 47.0625 71.375 47.9583 75.5 49.75C79.6667 51.5 83.2917 53.9583 86.375 57.125C89.4583 60.2917 91.8958 64.0417 93.6875 68.375C94.0507 69.245 94.3771 70.1322 94.6667 71.0365ZM77.8125 75.3125C78.7292 77.5208 79.1875 79.9167 79.1875 82.5C79.1875 85.0833 78.7292 87.4792 77.8125 89.6875C76.9375 91.8958 75.7292 93.8125 74.1875 95.4375C72.6458 97.0625 70.8333 98.3542 68.75 99.3125C66.7083 100.229 64.5208 100.688 62.1875 100.688C59.8542 100.688 57.6458 100.229 55.5625 99.3125C53.5208 98.3542 51.7292 97.0625 50.1875 95.4375C48.6458 93.8125 47.4375 91.8958 46.5625 89.6875C45.6875 87.4792 45.25 85.0833 45.25 82.5C45.25 80.1667 45.6875 77.9167 46.5625 75.75C47.4375 73.5417 48.6458 71.6042 50.1875 69.9375C51.7292 68.2292 53.5208 66.875 55.5625 65.875C57.6458 64.8333 59.8542 64.3125 62.1875 64.3125C64.5208 64.3125 66.7083 64.7708 68.75 65.6875C70.8333 66.6042 72.6458 67.875 74.1875 69.5C75.7292 71.125 76.9375 73.0625 77.8125 75.3125Z" fill="white"/>
<path fill-rule="evenodd" clip-rule="evenodd" d="M233.188 118H229.062L222.438 108.812C220.812 110.271 219.083 111.646 217.25 112.938C215.458 114.188 213.562 115.292 211.562 116.25C209.562 117.167 207.5 117.896 205.375 118.438C203.292 118.979 201.167 119.25 199 119.25C194.292 119.25 189.854 118.375 185.688 116.625C181.562 114.833 177.938 112.375 174.812 109.25C171.729 106.083 169.292 102.354 167.5 98.0625C165.708 93.7292 164.812 89.0208 164.812 83.9375C164.812 78.8958 165.708 74.2083 167.5 69.875C169.292 65.5417 171.729 61.7917 174.812 58.625C177.938 55.4583 181.562 52.9792 185.688 51.1875C189.854 49.3958 194.292 48.5 199 48.5C200.5 48.5 202.042 48.625 203.625 48.875C205.25 49.125 206.812 49.5417 208.312 50.125C209.854 50.6667 211.292 51.3958 212.625 52.3125C213.958 53.2292 215.083 54.3542 216 55.6875V24.4375H233.188V66.3154C232.573 67.4546 232.01 68.6412 231.5 69.875C229.708 74.2083 228.812 78.8958 228.812 83.9375C228.812 89.0208 229.708 93.7292 231.5 98.0625C232.01 99.2845 232.573 100.461 233.188 101.592V118ZM216 83.9375C216 81.6042 215.542 79.3542 214.625 77.1875C213.75 74.9792 212.542 73.0417 211 71.375C209.458 69.6667 207.646 68.3125 205.562 67.3125C203.521 66.2708 201.333 65.75 199 65.75C196.667 65.75 194.458 66.1667 192.375 67C190.333 67.8333 188.542 69.0417 187 70.625C185.5 72.1667 184.312 74.0625 183.438 76.3125C182.562 78.5625 182.125 81.1042 182.125 83.9375C182.125 86.3958 182.562 88.7292 183.438 90.9375C184.312 93.1458 185.5 95.0833 187 96.75C188.542 98.4167 190.333 99.7292 192.375 100.688C194.458 101.646 196.667 102.125 199 102.125C201.333 102.125 203.521 101.625 205.562 100.625C207.646 99.5833 209.458 98.2292 211 96.5625C212.542 94.8542 213.75 92.9167 214.625 90.75C215.542 88.5417 216 86.2708 216 83.9375Z" fill="white"/>
<path fill-rule="evenodd" clip-rule="evenodd" d="M233.188 118H229.062L222.438 108.812C220.812 110.271 219.083 111.646 217.25 112.938C215.458 114.188 213.562 115.292 211.562 116.25C209.562 117.167 207.5 117.896 205.375 118.438C203.292 118.979 201.167 119.25 199 119.25C194.292 119.25 189.854 118.375 185.688 116.625C181.562 114.833 177.938 112.375 174.812 109.25C171.729 106.083 169.292 102.354 167.5 98.0625C165.708 93.7292 164.812 89.0208 164.812 83.9375C164.812 78.8958 165.708 74.2083 167.5 69.875C169.292 65.5417 171.729 61.7917 174.812 58.625C177.938 55.4583 181.562 52.9792 185.688 51.1875C189.854 49.3958 194.292 48.5 199 48.5C200.5 48.5 202.042 48.625 203.625 48.875C205.25 49.125 206.812 49.5417 208.312 50.125C209.854 50.6667 211.292 51.3958 212.625 52.3125C213.958 53.2292 215.083 54.3542 216 55.6875V24.4375H233.188V66.3154C232.573 67.4546 232.01 68.6412 231.5 69.875C229.708 74.2083 228.812 78.8958 228.812 83.9375C228.812 89.0208 229.708 93.7292 231.5 98.0625C232.01 99.2845 232.573 100.461 233.188 101.592V118ZM216 83.9375C216 81.6042 215.542 79.3542 214.625 77.1875C213.75 74.9792 212.542 73.0417 211 71.375C209.458 69.6667 207.646 68.3125 205.562 67.3125C203.521 66.2708 201.333 65.75 199 65.75C196.667 65.75 194.458 66.1667 192.375 67C190.333 67.8333 188.542 69.0417 187 70.625C185.5 72.1667 184.312 74.0625 183.438 76.3125C182.562 78.5625 182.125 81.1042 182.125 83.9375C182.125 86.3958 182.562 88.7292 183.438 90.9375C184.312 93.1458 185.5 95.0833 187 96.75C188.542 98.4167 190.333 99.7292 192.375 100.688C194.458 101.646 196.667 102.125 199 102.125C201.333 102.125 203.521 101.625 205.562 100.625C207.646 99.5833 209.458 98.2292 211 96.5625C212.542 94.8542 213.75 92.9167 214.625 90.75C215.542 88.5417 216 86.2708 216 83.9375Z" fill="white"/>
<path fill-rule="evenodd" clip-rule="evenodd" d="M332.5 101.562C331.833 101.479 331.167 101.333 330.5 101.125L362.5 62.5625C360.917 60.3125 359.083 58.2917 357 56.5C354.917 54.6667 352.667 53.125 350.25 51.875C347.875 50.625 345.354 49.6667 342.688 49C340.021 48.3333 337.292 48 334.5 48C329.792 48 325.354 48.8542 321.188 50.5625C317.062 52.2708 313.438 54.6667 310.312 57.75C307.229 60.8333 304.792 64.5625 303 68.9375C301.208 73.3125 300.312 78.1458 300.312 83.4375C300.312 88.6042 301.208 93.3542 303 97.6875C304.792 101.979 307.229 105.688 310.312 108.812C313.438 111.938 317.062 114.375 321.188 116.125C325.354 117.875 329.792 118.75 334.5 118.75C337.292 118.75 340 118.417 342.625 117.75C345.292 117.125 347.812 116.188 350.188 114.938C352.604 113.688 354.833 112.167 356.875 110.375C358.958 108.583 360.792 106.562 362.375 104.312L349.875 91.75C349.208 93.25 348.333 94.625 347.25 95.875C346.208 97.0833 345 98.125 343.625 99C342.292 99.8333 340.854 100.479 339.312 100.938C337.771 101.396 336.167 101.625 334.5 101.625C333.833 101.625 333.167 101.604 332.5 101.562ZM336.875 65.375C337.667 65.4583 338.458 65.6458 339.25 65.9375L319.375 92.3125C319.042 91.7292 318.771 91.0625 318.562 90.3125C318.354 89.5625 318.167 88.7917 318 88C317.875 87.1667 317.771 86.3542 317.688 85.5625C317.646 84.7708 317.625 84.0625 317.625 83.4375C317.625 80.6458 318.062 78.1458 318.938 75.9375C319.812 73.6875 321 71.7708 322.5 70.1875C324.042 68.6042 325.833 67.3958 327.875 66.5625C329.958 65.6875 332.167 65.25 334.5 65.25C335.333 65.25 336.125 65.2917 336.875 65.375Z" fill="white"/>
<path fill-rule="evenodd" clip-rule="evenodd" d="M332.5 101.562C331.833 101.479 331.167 101.333 330.5 101.125L362.5 62.5625C360.917 60.3125 359.083 58.2917 357 56.5C354.917 54.6667 352.667 53.125 350.25 51.875C347.875 50.625 345.354 49.6667 342.688 49C340.021 48.3333 337.292 48 334.5 48C329.792 48 325.354 48.8542 321.188 50.5625C317.062 52.2708 313.438 54.6667 310.312 57.75C307.229 60.8333 304.792 64.5625 303 68.9375C301.208 73.3125 300.312 78.1458 300.312 83.4375C300.312 88.6042 301.208 93.3542 303 97.6875C304.792 101.979 307.229 105.688 310.312 108.812C313.438 111.938 317.062 114.375 321.188 116.125C325.354 117.875 329.792 118.75 334.5 118.75C337.292 118.75 340 118.417 342.625 117.75C345.292 117.125 347.812 116.188 350.188 114.938C352.604 113.688 354.833 112.167 356.875 110.375C358.958 108.583 360.792 106.562 362.375 104.312L349.875 91.75C349.208 93.25 348.333 94.625 347.25 95.875C346.208 97.0833 345 98.125 343.625 99C342.292 99.8333 340.854 100.479 339.312 100.938C337.771 101.396 336.167 101.625 334.5 101.625C333.833 101.625 333.167 101.604 332.5 101.562ZM336.875 65.375C337.667 65.4583 338.458 65.6458 339.25 65.9375L319.375 92.3125C319.042 91.7292 318.771 91.0625 318.562 90.3125C318.354 89.5625 318.167 88.7917 318 88C317.875 87.1667 317.771 86.3542 317.688 85.5625C317.646 84.7708 317.625 84.0625 317.625 83.4375C317.625 80.6458 318.062 78.1458 318.938 75.9375C319.812 73.6875 321 71.7708 322.5 70.1875C324.042 68.6042 325.833 67.3958 327.875 66.5625C329.958 65.6875 332.167 65.25 334.5 65.25C335.333 65.25 336.125 65.2917 336.875 65.375Z" fill="white"/>
<path d="M368.812 117.5H385.875V80.625C385.875 78.8333 386.208 77.1458 386.875 75.5625C387.542 73.9792 388.458 72.6042 389.625 71.4375C390.792 70.2708 392.167 69.3542 393.75 68.6875C395.333 68.0208 397.021 67.6875 398.812 67.6875H413.875V50.6875H398.812C395.062 50.6875 391.438 51.375 387.938 52.75C384.438 54.0833 381.312 56 378.562 58.5L372.938 50.5625H368.812V117.5Z" fill="white"/>
<path d="M368.812 117.5H385.875V80.625C385.875 78.8333 386.208 77.1458 386.875 75.5625C387.542 73.9792 388.458 72.6042 389.625 71.4375C390.792 70.2708 392.167 69.3542 393.75 68.6875C395.333 68.0208 397.021 67.6875 398.812 67.6875H413.875V50.6875H398.812C395.062 50.6875 391.438 51.375 387.938 52.75C384.438 54.0833 381.312 56 378.562 58.5L372.938 50.5625H368.812V117.5Z" fill="white"/>
</svg>
